<svg xmlns="http://www.w3.org/2000/svg" width="24" height="24" viewBox="0 0 24 24" class="{{ class }}">
  <path fill="currentColor" d="M13,13.2a1.8,1.8,0,0,1,.1.6,1.7,1.7,0,0,1-.5,1.2l-.5.3a1.4,1.4,0,0,1-1.6-.3l-.3-.5a1.7,1.7,0,0,1-.1-.6,1.8,1.8,0,0,1,.1-.6l.3-.5.5-.3a1.5,1.5,0,0,1,1.7.3ZM20,12a6.3,6.3,0,0,1-.1,1.4,3.8,3.8,0,0,1-.3,1.2,2.1,2.1,0,0,1-.6.7l-.8.3-.8-.3a2,2,0,0,1-.6-.7,4,4,0,0,1-.4-1.1,7.1,7.1,0,0,1,0-2.7,4.1,4.1,0,0,1,.4-1.1,2,2,0,0,1,.6-.7l.8-.3.8.3a2.1,2.1,0,0,1,.6.7,3.9,3.9,0,0,1,.3,1.1A11.3,11.3,0,0,1,20,12ZM12,0A12,12,0,1,0,24,12,12,12,0,0,0,12,0Zm8.7,15.7a3.6,3.6,0,0,1-1.2,1.1,2.9,2.9,0,0,1-3,0,3.5,3.5,0,0,1-1.1-1.1,5.1,5.1,0,0,1-.6-1.3,3.3,3.3,0,0,1-.2.9,3.3,3.3,0,0,1-.7,1l-1,.7-1.2.3a3,3,0,0,1-1.4-.3,3.2,3.2,0,0,1-1-.7,3.3,3.3,0,0,1-.6-1v.2a2.8,2.8,0,0,1-.6,1l-1,.6a3.7,3.7,0,0,1-2.4,0l-.9-.5L3,15.7a3.6,3.6,0,0,1-.5-1.2v-.7H4.1a2.1,2.1,0,0,0,.1.6l.5.6H5a1.6,1.6,0,0,0,1.3.1l.4-.3.3-.4a1.3,1.3,0,0,0,.2-.6,1.2,1.2,0,0,0-.4-1,1.8,1.8,0,0,0-1.2-.3H4.7V10.9H5.9l.5-.3.3-.4a1.3,1.3,0,0,0,.2-.5,1.1,1.1,0,0,0-.3-.9,1.2,1.2,0,0,0-.9-.3,1.2,1.2,0,0,0-.9.3l-.4.7H2.6V9l.4-.7.5-.8a2.9,2.9,0,0,1,2-.7L6.8,7l.9.5a2.5,2.5,0,0,1,.8,2,2.9,2.9,0,0,1,0,.8l-.3.6-.3.5-.4.3h0a2.4,2.4,0,0,1,1,.9v.2a4.2,4.2,0,0,1,.2-.9,12.9,12.9,0,0,1,.9-1.7L12,6.8h1.8l-2.5,3.9h1.8l.9.7.5.7V12a8.1,8.1,0,0,1,.3-2,5.3,5.3,0,0,1,.6-1.6,3.5,3.5,0,0,1,1.1-1.2,2.9,2.9,0,0,1,3,0,3.6,3.6,0,0,1,1.1,1.1,5.3,5.3,0,0,1,.7,1.6,8.5,8.5,0,0,1,0,4.1A5.4,5.4,0,0,1,20.7,15.7Z"/>
</svg>