<svg xmlns="http://www.w3.org/2000/svg" width="40" height="40" viewBox="0 0 40 40">
  <defs>
    <style type="text/css">
      <![CDATA[
      .border {
        fill: #fff;
      }
      .house {
        fill: #ad1457;
      }
      ]]>
    </style>
  </defs>
  <rect class="border" x="16" y="22" width="8" height="13"/>
  <path class="house" d="M23.0518,33.5a1.5,1.5,0,0,1-1.5-1.5V24.3232h-3.104V32a1.5,1.5,0,0,1-1.5,1.5h-7.63a1.5,1.5,0,0,1-1.5-1.5V21.2646H4.7393a1.5,1.5,0,0,1-1.0049-2.6138L18.9951,4.8862a1.5,1.5,0,0,1,2.01,0L36.2656,18.6509a1.5,1.5,0,0,1-1.0049,2.6138H32.1826V32a1.5,1.5,0,0,1-1.5,1.5Z"/>
  <path class="border" d="M20,6,35.2609,19.7647H30.6826V32h-7.63V22.8235H16.9478V32h-7.63V19.7647H4.7391L20,6m0-3a2.9928,2.9928,0,0,0-2.0093.7723L2.73,17.537a3,3,0,0,0,2.0093,5.2277H6.3174V32a3,3,0,0,0,3,3h7.63a3,3,0,0,0,3-3V25.8235h.1044V32a3,3,0,0,0,3,3h7.63a3,3,0,0,0,3-3V22.7647h1.5783A3,3,0,0,0,37.27,17.537L22.0093,3.7723A2.9928,2.9928,0,0,0,20,3Z"/>
</svg>
