<svg xmlns="http://www.w3.org/2000/svg" width="40" height="40" viewBox="0 0 40 40">
  <path fill="#fff" d="M16 22h8v13h-8z"/>
  <path fill="#ad1457" d="M23 33.5a1.5 1.5 0 0 1-1.4-1.5v-7.7h-3.2V32a1.5 1.5 0 0 1-1.5 1.5H9.3A1.5 1.5 0 0 1 7.8 32V21.3h-3a1.5 1.5 0 0 1-1-2.6L19 4.9a1.5 1.5 0 0 1 2 0l15.3 13.8a1.5 1.5 0 0 1-1 2.6h-3.1V32a1.5 1.5 0 0 1-1.5 1.5z"/>
  <path fill="#fff" d="M20 6l15.3 13.8h-4.6V32H23v-9.2h-6.2V32H9.3V19.8H4.7L20 6m0-3a3 3 0 0 0-2 .8L2.7 17.5a3 3 0 0 0 2 5.3h1.6V32a3 3 0 0 0 3 3H17a3 3 0 0 0 3-3v-6.2h.2V32a3 3 0 0 0 3 3h7.6a3 3 0 0 0 3-3v-9.2h1.6a3 3 0 0 0 2-5.3L22 3.8a3 3 0 0 0-2-.8z"/>
</svg>
