<svg xmlns="http://www.w3.org/2000/svg" width="40" height="40" viewBox="0 0 40 40">
  <path fill="#3070b3" d="M33.7 30.5a1.5 1.5 0 0 1-1.5-1.5V15.8h-.7V29a1.5 1.5 0 0 1-1.5 1.5h-3.2a1.5 1.5 0 0 1-1.5-1.5V15.8h-.8V29a1.5 1.5 0 0 1-1.5 1.5H12.8a1.5 1.5 0 0 1-1.5-1.5V15.8H11V29a1.5 1.5 0 0 1-1.5 1.5H6.3A1.5 1.5 0 0 1 4.8 29V15.8H3a1.5 1.5 0 0 1-1.5-1.5V11A1.5 1.5 0 0 1 3 9.5h13a1.5 1.5 0 0 1 1.5 1.5v13.2h.8V11a1.5 1.5 0 0 1 1.5-1.5H37a1.5 1.5 0 0 1 1.5 1.5v18a1.5 1.5 0 0 1-1.5 1.5z"/>
  <path fill="#fff" d="M37 11v18h-3.3V14.3H30V29h-3.2V14.3H23V29H12.8V14.3H9.5V29H6.3V14.3H3V11h13v14.7h3.8V11H37m0-3H19.8a3 3 0 0 0-1.9.6A3 3 0 0 0 16 8H3a3 3 0 0 0-3 3v3.3a3 3 0 0 0 3 3h.3V29a3 3 0 0 0 3 3h3.2a3 3 0 0 0 1.6-.5 3 3 0 0 0 1.7.5H23a3 3 0 0 0 1.9-.6 3 3 0 0 0 1.9.6H30a3 3 0 0 0 1.9-.6 3 3 0 0 0 1.8.6H37a3 3 0 0 0 3-3V11a3 3 0 0 0-3-3z"/>
</svg>
