<svg xmlns="http://www.w3.org/2000/svg" width="40" height="40" viewBox="0 0 40 40">
  <defs>
    <style type="text/css">
      <![CDATA[
      .border {
        fill: #fff;
      }
      .tum {
        fill: #3070b3;
      }
      ]]>
    </style>
  </defs>
  <path class="tum" d="M33.7393,30.5a1.5,1.5,0,0,1-1.5-1.5V15.8159h-.7256V29a1.5,1.5,0,0,1-1.5,1.5h-3.26a1.5,1.5,0,0,1-1.5-1.5V15.8159h-.7266V29a1.5,1.5,0,0,1-1.5,1.5H12.7808a1.5,1.5,0,0,1-1.5-1.5V15.8159h-.26V29a1.5,1.5,0,0,1-1.5,1.5H6.26A1.5,1.5,0,0,1,4.76,29V15.8159H3a1.5,1.5,0,0,1-1.5-1.5V11A1.5,1.5,0,0,1,3,9.5H16.041a1.5,1.5,0,0,1,1.5,1.5V24.1846h.7261V11a1.5,1.5,0,0,1,1.5-1.5H37A1.5,1.5,0,0,1,38.5,11V29A1.5,1.5,0,0,1,37,30.5Z"/>
  <path class="border" d="M37,11V29H33.74V14.3158h-3.726V29h-3.26V14.3158h-3.726V29H12.7808V14.3158h-3.26V29H6.26V14.3158H3V11H16.0411V25.6842h3.726V11H37m0-3H19.7671a2.9873,2.9873,0,0,0-1.863.6484A2.9873,2.9873,0,0,0,16.0411,8H3a3,3,0,0,0-3,3v3.3158a3,3,0,0,0,3,3h.26V29a3,3,0,0,0,3,3h3.26a2.9864,2.9864,0,0,0,1.63-.4811,2.9864,2.9864,0,0,0,1.63.4811H23.0274a2.9873,2.9873,0,0,0,1.863-.6484A2.9873,2.9873,0,0,0,26.7534,32h3.26a2.9873,2.9873,0,0,0,1.863-.6484A2.9874,2.9874,0,0,0,33.74,32H37a3,3,0,0,0,3-3V11a3,3,0,0,0-3-3Z"/>
</svg>
