<svg xmlns="http://www.w3.org/2000/svg" width="24" height="24" viewBox="0 0 24 24" class="{{ include.class }}">
  <path fill="currentColor"  d="M21.5,19a2.5,2.5,0,0,1-5,0h0a4.5,4.5,0,0,0-1-1.3A5.7,5.7,0,0,0,12,16.5a5.7,5.7,0,0,0-3.5,1.1,4.5,4.5,0,0,0-1,1.3h0A2.5,2.5,0,1,1,5,16.5h.1a4.5,4.5,0,0,0,1.3-1A5.7,5.7,0,0,0,7.5,12,5.7,5.7,0,0,0,6.4,8.5a4.5,4.5,0,0,0-1.3-1H5A2.5,2.5,0,1,1,7.5,5h0a4.5,4.5,0,0,0,1,1.3A5.7,5.7,0,0,0,12,7.5a5.7,5.7,0,0,0,3.5-1.1,4.5,4.5,0,0,0,1-1.3h0A2.5,2.5,0,1,1,19,7.5h-.1a4.5,4.5,0,0,0-1.3,1A5.7,5.7,0,0,0,16.5,12a5.7,5.7,0,0,0,1.1,3.5,4.5,4.5,0,0,0,1.3,1H19A2.5,2.5,0,0,1,21.5,19ZM5,10l1.3-.2L5,8.5A3.5,3.5,0,1,1,8.5,5L9.8,6.3A5,5,0,1,0,5,10ZM15.5,5A3.5,3.5,0,1,1,19,8.5L17.7,9.8,19,10a5,5,0,1,0-4.8-3.7ZM19,14l-1.3.2L19,15.5A3.5,3.5,0,1,1,15.5,19l-1.3-1.3A5,5,0,1,0,19,14ZM8.5,19A3.5,3.5,0,1,1,5,15.5l1.3-1.3L5,14a5,5,0,1,0,4.8,3.7Z"/>
</svg>