<svg xmlns="http://www.w3.org/2000/svg" width="24" height="24" viewBox="0 0 24 24" class="{{ include.class }}">
  <path fill="currentColor" d="M12,0A12,12,0,1,0,24,12,12,12,0,0,0,12,0Zm8.7,7.7H17.4a16.1,16.1,0,0,0-1.5-4.6,9.7,9.7,0,0,1,4.8,4.6ZM12,2.3c.9,0,2.4,2,3.1,5.4H8.9C9.6,4.3,11.1,2.3,12,2.3ZM2.3,12a9.8,9.8,0,0,1,.2-1.9H6.3c0,.6-.1,1.3-.1,1.9s0,1.3.1,1.9H2.5A9.8,9.8,0,0,1,2.3,12Zm1,4.3H6.6a16.1,16.1,0,0,0,1.5,4.6A9.7,9.7,0,0,1,3.3,16.3ZM6.6,7.7H3.3A9.7,9.7,0,0,1,8.1,3.2,16.1,16.1,0,0,0,6.6,7.7ZM12,21.7c-.9,0-2.4-2-3.1-5.4h6.1c-.7,3.4-2.2,5.4-3.1,5.4Zm3.4-7.7H8.6c-.1-.6-.1-1.3-.1-1.9s0-1.3.1-1.9h6.8c.1.6.1,1.3.1,1.9S15.4,13.3,15.4,13.9Zm.5,6.9a16.3,16.3,0,0,0,1.5-4.6h3.3A9.7,9.7,0,0,1,15.9,20.8Zm1.8-6.9c0-.6.1-1.3.1-1.9s0-1.3-.1-1.9h3.8a9.8,9.8,0,0,1,0,3.9Z"/>
</svg>
