<svg xmlns="http://www.w3.org/2000/svg" width="24" height="24" viewBox="0 0 24 24" class="{{ include.class }}">
  <path fill="currentColor" d="M22.91,12v8.73a2.18,2.18,0,0,1-2.18,2.18H3.27a2.18,2.18,0,0,1-2.18-2.18V12A1.09,1.09,0,0,1,0,10.91V7.64A2.18,2.18,0,0,1,2.18,5.45H5.64A3.28,3.28,0,0,1,8.73,1.09a3.31,3.31,0,0,1,2.65,1.35h0l.62.84.62-.84h0a3.31,3.31,0,0,1,2.65-1.35,3.28,3.28,0,0,1,3.09,4.36h3.46A2.18,2.18,0,0,1,24,7.64v3.27A1.09,1.09,0,0,1,22.91,12M3.27,20.73h7.64V12H3.27v8.73m17.45,0V12H13.09v8.73h7.64M8.73,3.27A1.09,1.09,0,1,0,9.82,4.36,1.09,1.09,0,0,0,8.73,3.27m6.55,0a1.09,1.09,0,1,0,1.09,1.09,1.09,1.09,0,0,0-1.09-1.09M2.18,7.64V9.82h8.73V7.64H2.18m10.91,0V9.82h8.73V7.64Z"/>
</svg>