<svg xmlns="http://www.w3.org/2000/svg" width="24" height="24" viewBox="0 0 24 24" class="{{ include.class }}">
  <path fill="currentColor" d="M13,0h8.83a.7.7,0,0,1,.72.69,1,1,0,0,1-.11.44l-.85,1.64.54.52a1.36,1.36,0,0,1,.42,1V13.4a.69.69,0,0,1-.43.63l-3.59,1.54a.74.74,0,0,1-.56,0l-1.77-.68a.7.7,0,0,1-.43-.47L15,11.69a1.39,1.39,0,0,0-.75-.9L13,10.15v2.9a2.76,2.76,0,0,0,1.58,2.48L18,17.19a4.6,4.6,0,0,1,2.64,4.13V24H1.5V11.08A11.27,11.27,0,0,1,13,0ZM18.2,6.69A1.19,1.19,0,1,0,19.4,5.54,1.17,1.17,0,0,0,18.2,6.69Z"/>
</svg>
