<svg xmlns="http://www.w3.org/2000/svg" width="40" height="40" viewBox="0 0 40 40">
  <path d="M20,1.5A18.5,18.5,0,1,0,38.5,20,18.5,18.5,0,0,0,20,1.5Z" fill="#fff"/>
  <path d="M20,3.81A16.19,16.19,0,1,0,36.19,20,16.19,16.19,0,0,0,20,3.81Z" fill="#5a3699"/>
  <path d="M27.37,22.69c-.07,1.47-.16,2.94-.24,4.41,0,.17,0,.33,0,.52H22.76L22.9,25c.11-2.18.25-4.36.33-6.54s-.67-2.79-2.76-2.7A3.08,3.08,0,0,0,17.15,19c-.15,2.58-.28,5.17-.41,7.75,0,.28,0,.57-.07.94H12.39V25.53c.07-1.06.15-2.12.21-3.18q.26-4.61.5-9.22c0-.11,0-.23,0-.37h4.08v1.86a17.62,17.62,0,0,1,1.31-1.19,7.14,7.14,0,0,1,7.14-.3,3.8,3.8,0,0,1,1.94,3.36C27.61,18.57,27.47,20.63,27.37,22.69Z" fill="#fff"/>
</svg>
