<svg aria-hidden="true" style="position: absolute; overflow: hidden; width: 0; height: 0;" version="1.1" 
    xmlns="http://www.w3.org/2000/svg" 
    xmlns:xlink="http://www.w3.org/1999/xlink">
    <defs>
        <symbol id="mb-icon-sketchfab" viewBox="0 0 32 32">
            <title>sketchfab</title>
            <path d="M16 0c-8.8 0-16 7.2-16 16s7.2 16 16 16 16-7.2 16-16-7.2-16-16-16zM14.667 25.6l-6.933-4v-8l6.933 3.733v8.267zM15.867 15.467l-8.133-4.4 8.133-4.667 8.133 4.667-8.133 4.4zM24 21.6l-6.8 4v-8.4l6.8-3.733v8.133z"></path>
        </symbol>
        <symbol id="mb-icon-360cities" viewBox="0 0 32 32">
            <title>360cities</title>
            <path d="M17.333 17.6c0.084 0.235 0.133 0.506 0.133 0.789 0 0.004 0 0.008-0 0.012v-0.001c-0.002 0.625-0.256 1.191-0.667 1.6l-0 0-0.667 0.4c-0.231 0.11-0.501 0.174-0.787 0.174-0.529 0-1.006-0.22-1.346-0.573l-0.001-0.001-0.4-0.667c-0.085-0.228-0.134-0.492-0.134-0.767 0-0.012 0-0.023 0-0.035l-0 0.002c-0-0.003-0-0.007-0-0.011 0-0.283 0.049-0.554 0.139-0.806l-0.005 0.017 0.4-0.667 0.667-0.4c0.249-0.119 0.541-0.189 0.849-0.189 0.554 0 1.055 0.225 1.418 0.589l0 0zM26.667 16c0.004 0.101 0.007 0.22 0.007 0.339 0 0.54-0.051 1.069-0.148 1.581l0.008-0.052c-0.049 0.589-0.192 1.132-0.413 1.632l0.013-0.032c-0.2 0.373-0.469 0.685-0.793 0.928l-0.007 0.005-1.067 0.4-1.067-0.4c-0.334-0.245-0.604-0.558-0.793-0.919l-0.007-0.015c-0.234-0.423-0.418-0.914-0.527-1.432l-0.006-0.035c-0.11-0.541-0.173-1.163-0.173-1.8s0.063-1.259 0.183-1.86l-0.010 0.060c0.117-0.553 0.302-1.044 0.548-1.495l-0.014 0.029c0.196-0.376 0.466-0.688 0.793-0.928l0.007-0.005 1.067-0.4 1.067 0.4c0.331 0.248 0.6 0.56 0.793 0.918l0.007 0.015c0.192 0.427 0.333 0.922 0.397 1.441l0.003 0.025c0.068 0.464 0.116 1.016 0.133 1.577l0.001 0.023zM16 0c-8.837 0-16 7.163-16 16s7.163 16 16 16c8.837 0 16-7.163 16-16v0c0-8.837-7.163-16-16-16v0zM27.6 20.933c-0.418 0.604-0.953 1.097-1.577 1.454l-0.023 0.012c-0.57 0.35-1.261 0.557-2 0.557s-1.43-0.207-2.017-0.567l0.017 0.010c-0.596-0.379-1.088-0.87-1.455-1.448l-0.011-0.019c-0.327-0.499-0.599-1.073-0.787-1.685l-0.013-0.048c-0.035 0.44-0.13 0.848-0.277 1.23l0.010-0.030c-0.237 0.518-0.551 0.96-0.933 1.333l-0.001 0.001-1.333 0.933-1.6 0.4c-0.036 0.001-0.077 0.002-0.119 0.002-0.636 0-1.237-0.148-1.771-0.412l0.023 0.010c-0.519-0.234-0.961-0.549-1.332-0.932l-0.001-0.001c-0.332-0.378-0.602-0.82-0.79-1.303l-0.010-0.030v0.267c-0.181 0.518-0.454 0.962-0.802 1.335l0.002-0.002-1.333 0.8c-0.477 0.169-1.027 0.267-1.6 0.267s-1.123-0.098-1.635-0.277l0.035 0.011-1.2-0.667-1.067-1.2c-0.302-0.458-0.533-0.994-0.661-1.568l-0.006-0.032v-0.933h2.133c0.006 0.288 0.054 0.562 0.139 0.82l-0.006-0.020 0.667 0.8h0.4c0.294 0.162 0.644 0.258 1.016 0.258 0.257 0 0.504-0.046 0.732-0.129l-0.015 0.005 0.533-0.4 0.4-0.533c0.147-0.227 0.243-0.5 0.266-0.794l0-0.006c0.004-0.041 0.006-0.088 0.006-0.136 0-0.476-0.208-0.903-0.537-1.196l-0.002-0.001c-0.377-0.259-0.844-0.413-1.347-0.413-0.089 0-0.177 0.005-0.264 0.014l0.011-0.001h-1.2v-2.133h1.6l0.667-0.4 0.4-0.533c0.129-0.19 0.222-0.414 0.265-0.656l0.002-0.011c0.007-0.055 0.011-0.118 0.011-0.182 0-0.396-0.157-0.755-0.412-1.019l0 0c-0.281-0.252-0.655-0.406-1.065-0.406-0.048 0-0.095 0.002-0.141 0.006l0.006-0c-0.040-0.004-0.088-0.006-0.135-0.006-0.41 0-0.783 0.154-1.066 0.407l0.002-0.001-0.533 0.933h-2.4v-0.667l0.533-0.933 0.667-1.067c0.673-0.582 1.556-0.936 2.522-0.936 0.051 0 0.101 0.001 0.152 0.003l-0.007-0 1.733 0.267 1.2 0.667c0.661 0.611 1.074 1.483 1.074 2.451 0 0.076-0.003 0.152-0.008 0.226l0.001-0.010c0.024 0.16 0.037 0.345 0.037 0.533s-0.013 0.373-0.039 0.554l0.002-0.021-0.4 0.8-0.4 0.667-0.533 0.4c0.557 0.272 1.009 0.682 1.325 1.187l0.008 0.013v0.267c0.050-0.446 0.143-0.852 0.279-1.239l-0.012 0.039c0.389-0.884 0.79-1.628 1.241-2.336l-0.041 0.070 3.2-4.533h2.4l-3.333 5.2h2.4l1.2 0.933 0.667 0.933v-0.133c0.023-0.958 0.168-1.873 0.419-2.743l-0.019 0.076c0.163-0.804 0.441-1.518 0.818-2.167l-0.018 0.034c0.365-0.649 0.859-1.186 1.451-1.59l0.016-0.010c0.57-0.35 1.261-0.557 2-0.557s1.43 0.207 2.017 0.567l-0.017-0.010c0.594 0.382 1.084 0.873 1.455 1.448l0.011 0.019c0.405 0.612 0.726 1.323 0.923 2.084l0.011 0.049c0.213 0.821 0.335 1.763 0.335 2.733s-0.122 1.913-0.352 2.812l0.017-0.078c-0.151 0.851-0.429 1.612-0.819 2.303l0.019-0.036z"></path>
        </symbol>
        <symbol id="mb-icon-laptop" viewBox="0 0 40 32">
            <title>laptop</title>
            <path style="opacity: var(--mb-icon-opacity, 0.5);" d="M8 4h24v16h-24v-16z"></path>
            <path d="M36 3c-0.006-1.656-1.344-2.994-3-3h-26c-1.656 0.006-2.994 1.344-3 3v21h32v-21zM32 20h-24v-16h24v16zM39 26h-15.156c-0.044 1.238-0.919 2-2.044 2h-3.8c-1.169 0-2.063-1.094-2.050-2h-14.95c-0.55 0-1 0.45-1 1v1c0.006 2.206 1.794 3.994 4 4h32c2.206-0.006 3.994-1.794 4-4v-1c0-0.55-0.45-1-1-1z"></path>
        </symbol>
        <symbol id="mb-icon-map" viewBox="0 0 36 32">
            <title>map</title>
            <path style="opacity: var(--mb-icon-opacity, 0.5);" d="M3 26.125l8-2.95v-17.894l-8 2.787v18.056zM25.038 8.813l-0.038 0.012v17.887l8-2.781v-18.056l-7.962 2.938z"></path>
            <path d="M35 2c-0.125 0-0.25 0.025-0.375 0.075l-10.625 3.925-10.75-3.794c-0.406-0.138-0.838-0.206-1.262-0.206-0.419 0-0.838 0.063-1.238 0.194l-9.494 3.3c-0.756 0.306-1.256 1.044-1.256 1.862v21.644c0 0.575 0.469 1 1 1 0.125 0 0.25-0.025 0.375-0.075l10.625-3.925 10.75 3.794c0.813 0.269 1.688 0.275 2.5 0.006l9.494-3.3c0.763-0.306 1.256-1.038 1.256-1.856v-21.644c0-0.575-0.469-1-1-1zM14 5.65l8 2.825v17.875l-8-2.825v-17.875zM3 26.125v-18.063l8-2.781v17.887l-0.037 0.012-7.963 2.944zM33 23.931l-8 2.781v-17.881l0.038-0.012 7.962-2.95v18.063z"></path>
        </symbol>
        <symbol id="mb-icon-camera" viewBox="0 0 32 32">
            <title>camera</title>
            <path style="opacity: var(--mb-icon-opacity, 0.5);" d="M16,14.5c-3,0-5.5,2.5-5.5,5.5s2.5,5.5,5.5,5.5s5.5-2.5,5.5-5.5l0,0C21.5,17,19,14.5,16,14.5L16,14.5z M30,2H16l-4,3H1C0.4,5,0,5.4,0,6l0,0v4h32V4C32,2.9,31.1,2,30,2L30,2z"></path>
            <path d="M11 3c0-0.552-0.448-1-1-1v0h-6c-0.552 0-1 0.448-1 1v0 2h8zM0 10v17c0 1.657 1.343 3 3 3v0h26c1.657 0 3-1.343 3-3v0-17zM16 27.5c-4.142 0-7.5-3.358-7.5-7.5s3.358-7.5 7.5-7.5c4.142 0 7.5 3.358 7.5 7.5v0c0 4.142-3.358 7.5-7.5 7.5v0z"></path>
        </symbol>
        <symbol id="mb-icon-drone" viewBox="0 0 32 32">
            <title>drone</title>
            <path style="opacity: var(--mb-icon-opacity, 0.5);" d="M18.771 10l2.429-1.754c-0.127-0.373-0.2-0.803-0.2-1.249 0-2.211 1.792-4.003 4.003-4.003s4.003 1.792 4.003 4.003c0 2.211-1.792 4.003-4.003 4.003-0.447 0-0.876-0.073-1.278-0.208l0.028 0.008-1.754 2.429v0.098c0.877 0.425 1.907 0.674 2.996 0.674 3.864 0 6.996-3.132 6.996-6.996s-3.132-6.996-6.996-6.996c-3.864 0-6.996 3.132-6.996 6.996 0 1.088 0.249 2.119 0.692 3.037l-0.018-0.042zM13.229 22l-2.479 1.79c0.12 0.363 0.188 0.78 0.188 1.214 0 2.211-1.793 4.004-4.004 4.004s-4.004-1.793-4.004-4.004c0-2.211 1.793-4.004 4.004-4.004 0.465 0 0.912 0.079 1.328 0.225l-0.028-0.009 1.766-2.446v-0.067c-0.893-0.444-1.945-0.704-3.058-0.704-3.864 0-6.996 3.132-6.996 6.996s3.132 6.996 6.996 6.996c3.864 0 6.996-3.132 6.996-6.996 0-1.088-0.249-2.119-0.692-3.037l0.018 0.042zM6.938 0c-3.864 0.002-6.996 3.135-6.996 7 0 3.866 3.134 7 7 7 1.113 0 2.165-0.26 3.1-0.722l-0.041 0.018v-0.068l-1.766-2.446c-0.387 0.137-0.832 0.216-1.297 0.216-2.209 0-4-1.791-4-4s1.791-4 4-4c2.209 0 4 1.791 4 4 0 0.433-0.069 0.849-0.196 1.239l0.008-0.028 2.479 1.79h0.035c0.426-0.878 0.675-1.91 0.675-3 0-3.866-3.134-7-7-7-0.001 0-0.001 0-0.002 0h0zM25 18c-0.003 0-0.006 0-0.009 0-1.087 0-2.115 0.249-3.032 0.692l0.042-0.018v0.098l1.754 2.429c0.373-0.127 0.803-0.2 1.249-0.2 2.211 0 4.003 1.792 4.003 4.003s-1.792 4.003-4.003 4.003c-2.211 0-4.003-1.792-4.003-4.003 0-0.447 0.073-0.876 0.208-1.278l-0.008 0.028-2.429-1.754h-0.098c-0.426 0.878-0.675 1.91-0.675 3 0 3.866 3.134 7 7 7s7-3.134 7-7c0-3.865-3.133-6.999-6.998-7h-0z"></path>
            <path d="M27 24.949c0 0.017 0.001 0.037 0.001 0.057 0 1.102-0.893 1.995-1.995 1.995-1.082 0-1.962-0.861-1.994-1.935l-0-0.003-4.241-3.063h-5.543l-4.241 3.063c-0.031 1.077-0.912 1.938-1.994 1.938-1.101 0-1.994-0.893-1.994-1.994 0-1.082 0.861-1.962 1.935-1.994l0.003-0 3.063-4.241v-5.543l-3.063-4.241c-1.077-0.031-1.938-0.912-1.938-1.994 0-1.101 0.893-1.994 1.994-1.994 1.082 0 1.962 0.861 1.994 1.935l0 0.003 4.241 3.063h5.543l4.241-3.063c0.031-1.077 0.912-1.938 1.994-1.938 1.101 0 1.994 0.893 1.994 1.994 0 1.082-0.861 1.962-1.935 1.994l-0.003 0-3.063 4.241v5.543l3.063 4.241c1.057 0.030 1.907 0.88 1.937 1.934l0 0.003z"></path>
        </symbol>
        <symbol id="mb-icon-a11y" viewBox="0 0 28 32">
            <title>a11y</title>
            <path d="M26.494 15.988l-0.806 9.831c-0.206 2.544-3.994 2.194-3.788-0.306l0.625-7.656-2.569 0.144c0.631 1.294 0.988 2.744 0.988 4.281 0 2.575-1.006 4.919-2.644 6.656l-2.456-2.456c3.619-3.981 0.819-10.45-4.625-10.45-1.619 0-3.094 0.619-4.2 1.625l-2.456-2.456c1.375-1.294 3.131-2.194 5.088-2.512l4.706-5.356-2.662-1.55-3.225 2.875c-1.875 1.675-4.412-1.156-2.531-2.838l4.25-3.794c0.613-0.55 1.506-0.637 2.219-0.225 0 0 8.706 5.056 8.719 5.069 1.012 0.631 1.294 2.25 0.381 3.287l-3.65 4.156 6.631-0.369c1.156-0.069 2.1 0.9 2.006 2.044zM22.438 6.362c1.756 0 3.181-1.425 3.181-3.181s-1.425-3.181-3.181-3.181c-1.756 0-3.181 1.425-3.181 3.181s1.425 3.181 3.181 3.181zM11.225 28.531c-5.037 0-7.963-5.663-5.169-9.756l-2.481-2.481c-1.3 1.644-2.075 3.725-2.075 5.981 0 8.169 9.419 12.587 15.712 7.656l-2.481-2.481c-1 0.681-2.206 1.081-3.506 1.081z"></path>
        </symbol>
        <symbol id="mb-icon-backspace" viewBox="0 0 40 32">
            <title>backspace</title>
            <path d="M29.353 11.353l-0.707-0.707c-0.391-0.391-1.024-0.391-1.414 0l-3.232 3.232-3.233-3.232c-0.391-0.391-1.024-0.391-1.414 0l-0.707 0.707c-0.391 0.391-0.391 1.024 0 1.414l3.232 3.232-3.233 3.233c-0.391 0.391-0.391 1.024 0 1.414l0.707 0.707c0.391 0.391 1.024 0.391 1.414 0l3.232-3.232 3.233 3.233c0.391 0.391 1.024 0.391 1.414 0l0.707-0.707c0.391-0.391 0.391-1.024 0-1.414l-3.232-3.232 3.233-3.232c0.39-0.391 0.39-1.024-0.001-1.414zM36 4h-23.171c-1.061 0-2.079 0.421-2.829 1.171l-9.414 9.414c-0.781 0.781-0.781 2.047 0 2.828l9.414 9.414c0.75 0.75 1.768 1.172 2.828 1.172h23.172c2.209 0 4-1.791 4-4v-16c0-2.209-1.791-4-4-4zM37 24c0 0.551-0.449 1-1 1h-23.171c-0.267 0-0.518-0.104-0.707-0.293l-8.707-8.707 8.707-8.707c0.189-0.189 0.44-0.293 0.707-0.293h23.172c0.551 0 1 0.449 1 1v16z"></path>
        </symbol>
        <symbol id="mb-icon-cogs" viewBox="0 0 40 32">
            <title>cogs</title>
            <path d="M32.006 11.938l-0.512 0.894c-0.188 0.331-0.587 0.469-0.944 0.338-0.738-0.275-1.413-0.669-2.006-1.162-0.288-0.238-0.363-0.656-0.175-0.981l0.512-0.894c-0.431-0.5-0.769-1.081-0.994-1.713h-1.031c-0.375 0-0.7-0.269-0.762-0.644-0.125-0.75-0.131-1.538 0-2.319 0.063-0.375 0.387-0.65 0.762-0.65h1.031c0.225-0.631 0.563-1.212 0.994-1.712l-0.512-0.894c-0.188-0.325-0.119-0.744 0.175-0.981 0.594-0.494 1.275-0.887 2.006-1.163 0.356-0.131 0.756 0.006 0.944 0.338l0.512 0.894c0.656-0.119 1.325-0.119 1.981 0l0.513-0.894c0.188-0.331 0.587-0.469 0.944-0.338 0.737 0.275 1.413 0.669 2.006 1.163 0.288 0.238 0.362 0.656 0.175 0.981l-0.513 0.894c0.431 0.5 0.769 1.081 0.994 1.713h1.031c0.375 0 0.7 0.269 0.763 0.644 0.125 0.75 0.131 1.538 0 2.319-0.063 0.375-0.388 0.65-0.763 0.65h-1.031c-0.225 0.631-0.563 1.213-0.994 1.713l0.513 0.894c0.188 0.325 0.119 0.744-0.175 0.981-0.594 0.494-1.275 0.887-2.006 1.162-0.356 0.131-0.756-0.006-0.944-0.338l-0.513-0.894c-0.65 0.119-1.325 0.119-1.981 0zM31.35 8.262c2.406 1.85 5.15-0.894 3.3-3.3-2.406-1.856-5.15 0.894-3.3 3.3zM24.144 17.881l2.106 1.050c0.631 0.363 0.906 1.131 0.656 1.819-0.556 1.512-1.65 2.9-2.663 4.113-0.462 0.556-1.262 0.694-1.894 0.331l-1.819-1.050c-1 0.856-2.163 1.538-3.431 1.981v2.1c0 0.725-0.519 1.35-1.231 1.475-1.537 0.262-3.15 0.275-4.744 0-0.719-0.125-1.25-0.744-1.25-1.475v-2.1c-1.269-0.45-2.431-1.125-3.431-1.981l-1.819 1.044c-0.625 0.363-1.431 0.225-1.894-0.331-1.012-1.212-2.081-2.6-2.638-4.106-0.25-0.681 0.025-1.45 0.656-1.819l2.081-1.050c-0.244-1.306-0.244-2.65 0-3.963l-2.081-1.056c-0.631-0.363-0.912-1.131-0.656-1.813 0.556-1.512 1.625-2.9 2.638-4.112 0.462-0.556 1.263-0.694 1.894-0.331l1.819 1.050c1-0.856 2.162-1.538 3.431-1.981v-2.106c0-0.719 0.512-1.344 1.225-1.469 1.537-0.262 3.156-0.275 4.75-0.006 0.719 0.125 1.25 0.744 1.25 1.475v2.1c1.269 0.45 2.431 1.125 3.431 1.981l1.819-1.050c0.625-0.362 1.431-0.225 1.894 0.331 1.012 1.212 2.075 2.6 2.631 4.112 0.25 0.681 0.006 1.45-0.625 1.819l-2.106 1.050c0.244 1.313 0.244 2.656 0 3.969zM16.794 19.2c3.7-4.813-1.794-10.306-6.606-6.606-3.7 4.813 1.794 10.306 6.606 6.606zM32.006 30.619l-0.512 0.894c-0.188 0.331-0.587 0.469-0.944 0.337-0.738-0.275-1.413-0.669-2.006-1.163-0.288-0.238-0.363-0.656-0.175-0.981l0.512-0.894c-0.431-0.5-0.769-1.081-0.994-1.712h-1.031c-0.375 0-0.7-0.269-0.762-0.644-0.125-0.75-0.131-1.538 0-2.319 0.063-0.375 0.387-0.65 0.762-0.65h1.031c0.225-0.631 0.563-1.212 0.994-1.712l-0.512-0.894c-0.188-0.325-0.119-0.744 0.175-0.981 0.594-0.494 1.275-0.887 2.006-1.163 0.356-0.131 0.756 0.006 0.944 0.337l0.512 0.894c0.656-0.119 1.325-0.119 1.981 0l0.513-0.894c0.188-0.331 0.587-0.469 0.944-0.337 0.737 0.275 1.413 0.669 2.006 1.163 0.288 0.238 0.362 0.656 0.175 0.981l-0.513 0.894c0.431 0.5 0.769 1.081 0.994 1.712h1.031c0.375 0 0.7 0.269 0.763 0.644 0.125 0.75 0.131 1.538 0 2.319-0.063 0.375-0.388 0.65-0.763 0.65h-1.031c-0.225 0.631-0.563 1.212-0.994 1.712l0.513 0.894c0.188 0.325 0.119 0.744-0.175 0.981-0.594 0.494-1.275 0.887-2.006 1.163-0.356 0.131-0.756-0.006-0.944-0.337l-0.513-0.894c-0.65 0.119-1.325 0.119-1.981 0zM31.35 26.938c2.406 1.85 5.15-0.894 3.3-3.3-2.406-1.85-5.15 0.894-3.3 3.3z"></path>
        </symbol>
        <symbol id="mb-icon-comment" viewBox="0 0 32 32">
            <title>comment</title>
            <path d="M28 0h-24c-2.206 0-4 1.794-4 4v18c0 2.206 1.794 4 4 4h6v5.25c0 0.444 0.363 0.75 0.75 0.75 0.15 0 0.306-0.044 0.444-0.15l7.806-5.85h9c2.206 0 4-1.794 4-4v-18c0-2.206-1.794-4-4-4zM29 22c0 0.55-0.45 1-1 1h-10l-5 3.75v-3.75h-9c-0.55 0-1-0.45-1-1v-18c0-0.55 0.45-1 1-1h24c0.55 0 1 0.45 1 1v18zM23 8.5h-14c-0.55 0-1 0.45-1 1v1c0 0.55 0.45 1 1 1h14c0.55 0 1-0.45 1-1v-1c0-0.55-0.45-1-1-1zM17 14.5h-8c-0.55 0-1 0.45-1 1v1c0 0.55 0.45 1 1 1h8c0.55 0 1-0.45 1-1v-1c0-0.55-0.45-1-1-1z"></path>
        </symbol>
        <symbol id="mb-icon-compass" viewBox="0 0 31 32">
            <title>compass</title>
            <path d="M21.746 8.116l-9.021 4.123c-0.438 0.204-0.782 0.548-0.98 0.973l-0.005 0.012-4.123 9.021c-0.476 1.041 0.596 2.113 1.637 1.637l9.021-4.123c0.438-0.203 0.782-0.548 0.98-0.973l0.005-0.012 4.123-9.021c0.476-1.041-0.596-2.113-1.637-1.637zM16.911 17.411c-0.779 0.779-2.043 0.779-2.822 0s-0.779-2.043 0-2.822c0.779-0.779 2.043-0.779 2.822 0s0.779 2.043 0 2.822zM15.5 0.5c-8.561 0-15.5 6.939-15.5 15.5s6.939 15.5 15.5 15.5 15.5-6.939 15.5-15.5-6.939-15.5-15.5-15.5zM15.5 28.5c-6.893 0-12.5-5.608-12.5-12.5s5.607-12.5 12.5-12.5 12.5 5.607 12.5 12.5-5.608 12.5-12.5 12.5z"></path>
        </symbol>
        <symbol id="mb-icon-facebook" viewBox="0 0 28 32">
            <title>facebook</title>
            <path d="M25 2h-22c-1.657 0-3 1.343-3 3v0 22c0 1.657 1.343 3 3 3v0h8.578v-9.519h-3.938v-4.481h3.938v-3.415c0-3.884 2.313-6.030 5.854-6.030 1.696 0 3.47 0.303 3.47 0.303v3.813h-1.954c-1.926 0-2.526 1.195-2.526 2.421v2.909h4.299l-0.688 4.481h-3.611v9.519h8.578c1.657 0 3-1.343 3-3v0-22c0-1.657-1.343-3-3-3v0z"></path>
        </symbol>
        <symbol id="mb-icon-gift" viewBox="0 0 32 32">
            <title>gift</title>
            <path d="M2 28c0 1.106 0.894 2 2 2h10v-10h-12v8zM18 30h10c1.106 0 2-0.894 2-2v-8h-12v10zM30 10h-2.631c0.387-0.756 0.631-1.594 0.631-2.5 0-3.031-2.469-5.5-5.5-5.5-2.6 0-4.281 1.331-6.438 4.269-2.156-2.938-3.838-4.269-6.438-4.269-3.031 0-5.5 2.469-5.5 5.5 0 0.906 0.237 1.744 0.631 2.5h-2.756c-1.106 0-2 0.894-2 2v5c0 0.55 0.45 1 1 1h30c0.55 0 1-0.45 1-1v-5c0-1.106-0.894-2-2-2zM9.619 10c-1.381 0-2.5-1.119-2.5-2.5s1.119-2.5 2.5-2.5c1.244 0 2.162 0.206 5.381 5h-5.381zM22.5 10h-5.381c3.212-4.781 4.106-5 5.381-5 1.381 0 2.5 1.119 2.5 2.5s-1.119 2.5-2.5 2.5z"></path>
        </symbol>
        <symbol id="mb-icon-globe" viewBox="0 0 31 32">
            <title>globe</title>
            <path d="M15.5 0.5c-8.563 0-15.5 6.938-15.5 15.5s6.938 15.5 15.5 15.5 15.5-6.938 15.5-15.5-6.938-15.5-15.5-15.5zM26.706 10.5h-4.2c-0.419-2.281-1.094-4.3-1.95-5.919 2.681 1.188 4.856 3.294 6.15 5.919zM15.5 3.5c1.163 0 3.038 2.575 3.95 7h-7.9c0.912-4.425 2.787-7 3.95-7zM3 16c0-0.856 0.087-1.694 0.25-2.5h4.856c-0.063 0.819-0.106 1.644-0.106 2.5s0.044 1.681 0.106 2.5h-4.856c-0.163-0.806-0.25-1.644-0.25-2.5zM4.294 21.5h4.2c0.419 2.281 1.094 4.3 1.95 5.919-2.681-1.188-4.856-3.294-6.15-5.919zM8.494 10.5h-4.2c1.294-2.625 3.469-4.731 6.15-5.919-0.856 1.619-1.531 3.638-1.95 5.919zM15.5 28.5c-1.162 0-3.037-2.575-3.95-7h7.906c-0.919 4.425-2.794 7-3.956 7zM19.881 18.5h-8.762c-0.069-0.8-0.119-1.625-0.119-2.5s0.050-1.7 0.119-2.5h8.769c0.069 0.8 0.119 1.625 0.119 2.5s-0.056 1.7-0.125 2.5zM20.556 27.419c0.856-1.619 1.525-3.637 1.95-5.919h4.2c-1.294 2.625-3.469 4.731-6.15 5.919zM22.894 18.5c0.063-0.819 0.106-1.644 0.106-2.5s-0.044-1.681-0.106-2.5h4.856c0.163 0.806 0.25 1.644 0.25 2.5s-0.087 1.694-0.25 2.5h-4.856z"></path>
        </symbol>
        <symbol id="mb-icon-hand-heart" viewBox="0 0 36 32">
            <title>hand-heart</title>
            <path d="M17.206 15.656c0.438 0.462 1.15 0.462 1.594 0l6.806-7.137c1.975-2.075 1.863-5.513-0.35-7.425-1.925-1.669-4.794-1.369-6.556 0.481l-0.7 0.731-0.694-0.725c-1.762-1.856-4.631-2.156-6.556-0.488-2.206 1.912-2.325 5.35-0.35 7.425l6.806 7.137zM35.331 20.506c-0.737-0.669-1.888-0.625-2.663 0l-5.775 4.619c-0.706 0.569-1.587 0.875-2.5 0.875h-7.394c-0.55 0-1-0.45-1-1s0.45-1 1-1h4.894c0.994 0 1.919-0.681 2.081-1.663 0.206-1.25-0.756-2.337-1.975-2.337h-10c-1.688 0-3.319 0.581-4.631 1.644l-2.906 2.356h-3.462c-0.55 0-1 0.45-1 1v6c0 0.55 0.45 1 1 1h22.3c0.906 0 1.788-0.306 2.5-0.875l9.45-7.563c0.95-0.756 1.025-2.206 0.081-3.056z"></path>
        </symbol>
        <symbol id="mb-icon-home" viewBox="0 0 36 32">
            <title>home</title>
            <path d="M18 7.188l-13.658 12.044c-0.101 0.091-0.231 0.134-0.342 0.209v11.559c0 0.552 0.448 1 1 1v0h8c0.552 0 1-0.448 1-1v0-8c0-0.552 0.448-1 1-1v0h6c0.552 0 1 0.448 1 1v0 8c0 0.552 0.448 1 1 1v0h8c0.552 0 1-0.448 1-1v0-11.556c-0.106-0.073-0.233-0.114-0.329-0.2zM35.668 14.768l-15.996-14.125c-0.44-0.399-1.027-0.643-1.67-0.643s-1.23 0.244-1.672 0.645l0.002-0.002-16 14.125c-0.204 0.184-0.332 0.449-0.332 0.744 0 0.257 0.097 0.492 0.257 0.669l-0.001-0.001 1.338 1.489c0.184 0.204 0.449 0.332 0.744 0.332 0.257 0 0.492-0.097 0.669-0.257l-0.001 0.001 14.333-12.643c0.175-0.155 0.407-0.25 0.662-0.25s0.486 0.095 0.663 0.251l-0.001-0.001 14.332 12.642c0.176 0.159 0.411 0.256 0.668 0.256 0.295 0 0.56-0.128 0.743-0.331l0.001-0.001 1.337-1.489c0.159-0.176 0.256-0.411 0.256-0.668 0-0.295-0.128-0.56-0.331-0.743l-0.001-0.001z"></path>
        </symbol>
        <symbol id="mb-icon-horse" viewBox="0 0 32 32">
            <title>horse</title>
            <path d="M31.863 20.781l-4.369-10.269c-0.931-2.575-3.15-4.438-5.813-4.95 1.125-0.662 2.894-2.244 2.137-5.144-0.081-0.313-0.444-0.494-0.75-0.381l-12.637 4.731c-8.188 2.944-10.431 10.162-10.431 20.156v5.075c0 1.106 0.894 2 2 2h14.762c1.488 0 2.456-1.563 1.788-2.894l-2.55-5.106v-0.044c-2.85-0.219-5.287-1.919-6.519-4.35-0.1-0.194-0.056-0.431 0.1-0.581l0.756-0.756c0.244-0.244 0.662-0.169 0.806 0.15 0.925 2.106 3.013 3.587 5.463 3.587 1.075 0 2.063-0.319 2.925-0.825l2.875 3.994c0.375 0.525 0.981 0.831 1.625 0.831h3.144c0.531 0 1.038-0.212 1.413-0.587l2.831-2.488c0.556-0.569 0.731-1.413 0.444-2.15zM20.5 14c-0.831 0-1.5-0.669-1.5-1.5s0.669-1.5 1.5-1.5 1.5 0.669 1.5 1.5-0.669 1.5-1.5 1.5z"></path>
        </symbol>
        <symbol id="mb-icon-image" viewBox="0 0 28 32">
            <title>image</title>
            <path d="M8 12c1.105 0 2-0.895 2-2s-0.895-2-2-2c-1.105 0-2 0.895-2 2v0c0 1.105 0.895 2 2 2v0zM26 2h-24c-1.105 0-2 0.895-2 2v0 24c0 1.105 0.895 2 2 2v0h24c1.105 0 2-0.895 2-2v0-24c0-1.105-0.895-2-2-2v0zM24 22h-20v-16h20zM16.8 13.067c-0.184-0.244-0.474-0.4-0.8-0.4s-0.616 0.156-0.798 0.398l-0.002 0.002-3.082 4.109-1.286-1.926c-0.182-0.27-0.486-0.445-0.832-0.445s-0.65 0.175-0.83 0.441l-0.002 0.004-3.168 4.75h16z"></path>
        </symbol>
        <symbol id="mb-icon-keyboard" viewBox="0 0 36 32">
            <title>keyboard</title>
            <path d="M33 28h-30c-1.657 0-3-1.343-3-3v-18c0-1.657 1.343-3 3-3h30c1.657 0 3 1.343 3 3v18c0 1.657-1.343 3-3 3zM8 11.25v-2.5c0-0.414-0.336-0.75-0.75-0.75h-2.5c-0.414 0-0.75 0.336-0.75 0.75v2.5c0 0.414 0.336 0.75 0.75 0.75h2.5c0.414 0 0.75-0.336 0.75-0.75zM14 11.25v-2.5c0-0.414-0.336-0.75-0.75-0.75h-2.5c-0.414 0-0.75 0.336-0.75 0.75v2.5c0 0.414 0.336 0.75 0.75 0.75h2.5c0.414 0 0.75-0.336 0.75-0.75zM20 11.25v-2.5c0-0.414-0.336-0.75-0.75-0.75h-2.5c-0.414 0-0.75 0.336-0.75 0.75v2.5c0 0.414 0.336 0.75 0.75 0.75h2.5c0.414 0 0.75-0.336 0.75-0.75zM26 11.25v-2.5c0-0.414-0.336-0.75-0.75-0.75h-2.5c-0.414 0-0.75 0.336-0.75 0.75v2.5c0 0.414 0.336 0.75 0.75 0.75h2.5c0.414 0 0.75-0.336 0.75-0.75zM32 11.25v-2.5c0-0.414-0.336-0.75-0.75-0.75h-2.5c-0.414 0-0.75 0.336-0.75 0.75v2.5c0 0.414 0.336 0.75 0.75 0.75h2.5c0.414 0 0.75-0.336 0.75-0.75zM11 17.25v-2.5c0-0.414-0.336-0.75-0.75-0.75h-2.5c-0.414 0-0.75 0.336-0.75 0.75v2.5c0 0.414 0.336 0.75 0.75 0.75h2.5c0.414 0 0.75-0.336 0.75-0.75zM17 17.25v-2.5c0-0.414-0.336-0.75-0.75-0.75h-2.5c-0.414 0-0.75 0.336-0.75 0.75v2.5c0 0.414 0.336 0.75 0.75 0.75h2.5c0.414 0 0.75-0.336 0.75-0.75zM23 17.25v-2.5c0-0.414-0.336-0.75-0.75-0.75h-2.5c-0.414 0-0.75 0.336-0.75 0.75v2.5c0 0.414 0.336 0.75 0.75 0.75h2.5c0.414 0 0.75-0.336 0.75-0.75zM29 17.25v-2.5c0-0.414-0.336-0.75-0.75-0.75h-2.5c-0.414 0-0.75 0.336-0.75 0.75v2.5c0 0.414 0.336 0.75 0.75 0.75h2.5c0.414 0 0.75-0.336 0.75-0.75zM8 23.25v-2.5c0-0.414-0.336-0.75-0.75-0.75h-2.5c-0.414 0-0.75 0.336-0.75 0.75v2.5c0 0.414 0.336 0.75 0.75 0.75h2.5c0.414 0 0.75-0.336 0.75-0.75zM26 23.25v-2.5c0-0.414-0.336-0.75-0.75-0.75h-14.5c-0.414 0-0.75 0.336-0.75 0.75v2.5c0 0.414 0.336 0.75 0.75 0.75h14.5c0.414 0 0.75-0.336 0.75-0.75zM32 23.25v-2.5c0-0.414-0.336-0.75-0.75-0.75h-2.5c-0.414 0-0.75 0.336-0.75 0.75v2.5c0 0.414 0.336 0.75 0.75 0.75h2.5c0.414 0 0.75-0.336 0.75-0.75z"></path>
        </symbol>
        <symbol id="mb-icon-linkedin" viewBox="0 0 28 32">
            <title>linkedin</title>
            <path d="M26 2h-24.006c-1.1 0-1.994 0.906-1.994 2.019v23.962c0 1.113 0.894 2.019 1.994 2.019h24.006c1.1 0 2-0.906 2-2.019v-23.962c0-1.112-0.9-2.019-2-2.019zM8.463 26h-4.15v-13.363h4.156v13.363zM6.388 10.813c-1.331 0-2.406-1.081-2.406-2.406s1.075-2.406 2.406-2.406c1.325 0 2.406 1.081 2.406 2.406 0 1.331-1.075 2.406-2.406 2.406zM24.019 26h-4.15v-6.5c0-1.55-0.031-3.544-2.156-3.544-2.162 0-2.494 1.688-2.494 3.431v6.613h-4.15v-13.363h3.981v1.825h0.056c0.556-1.050 1.912-2.156 3.931-2.156 4.2 0 4.981 2.769 4.981 6.369v7.325z"></path>
        </symbol>
        <symbol id="mb-icon-mail" viewBox="0 0 32 32">
            <title>mail</title>
            <path d="M29 4h-26c-1.657 0-3 1.343-3 3v18c0 1.657 1.343 3 3 3h26c1.657 0 3-1.343 3-3v-18c0-1.657-1.343-3-3-3zM29 7v2.55c-1.401 1.141-3.636 2.916-8.412 6.656-1.053 0.828-3.138 2.817-4.588 2.794-1.45 0.023-3.536-1.966-4.588-2.794-4.775-3.739-7.010-5.514-8.412-6.656v-2.55h26zM3 25v-11.6c1.432 1.141 3.463 2.741 6.559 5.165 1.366 1.075 3.758 3.449 6.441 3.435 2.67 0.014 5.032-2.325 6.441-3.434 3.096-2.424 5.127-4.025 6.559-5.166v11.6h-26z"></path>
        </symbol>
        <symbol id="mb-icon-send" viewBox="0 0 32 32">
            <title>send</title>
            <path d="M27.5 0.406l-26 14.994c-2.15 1.244-1.944 4.425 0.356 5.369l7.144 2.956v5.275c0 2.9 3.7 4.094 5.412 1.788l2.737-3.694 6.994 2.887c0.369 0.15 0.756 0.225 1.144 0.225 0.512 0 1.019-0.131 1.475-0.387 0.8-0.45 1.35-1.25 1.494-2.156l3.712-24.2c0.381-2.506-2.306-4.3-4.469-3.056zM12 29v-4.038l2.287 0.944-2.287 3.094zM25.288 27.206l-9.613-3.969 8.762-12.644c0.669-0.969-0.594-2.094-1.481-1.325l-13.219 11.519-6.737-2.788 26-15-3.712 24.206z"></path>
        </symbol>
        <symbol id="mb-icon-snow" viewBox="0 0 28 32">
            <title>snow</title>
            <path d="M27.506 22.2l-2.45-1.438 2.131-0.581c0.525-0.144 0.837-0.694 0.694-1.225l-0.256-0.969c-0.137-0.531-0.681-0.85-1.206-0.706l-4.981 1.356-4.488-2.637 4.494-2.637 4.981 1.356c0.525 0.144 1.063-0.175 1.206-0.706l0.256-0.969c0.137-0.531-0.169-1.081-0.694-1.225l-2.131-0.581 2.45-1.438c0.469-0.275 0.631-0.887 0.363-1.369l-0.494-0.869c-0.269-0.481-0.875-0.644-1.344-0.369l-2.45 1.438 0.569-2.169c0.137-0.531-0.169-1.081-0.694-1.225l-0.95-0.256c-0.525-0.144-1.063 0.175-1.206 0.706l-1.331 5.062-4.494 2.637v-5.281l3.644-3.706c0.381-0.388 0.381-1.025 0-1.413l-0.694-0.706c-0.381-0.387-1.006-0.387-1.387 0l-1.556 1.587v-2.869c0-0.55-0.438-1-0.981-1h-0.981c-0.544 0-0.981 0.45-0.981 1v2.881l-1.556-1.587c-0.381-0.387-1.006-0.387-1.387 0l-0.719 0.706c-0.381 0.388-0.381 1.025 0 1.413l3.644 3.706v5.281l-4.494-2.637-1.331-5.063c-0.138-0.531-0.681-0.85-1.206-0.706l-0.95 0.256c-0.525 0.144-0.837 0.694-0.694 1.225l0.569 2.169-2.45-1.438c-0.469-0.275-1.069-0.112-1.344 0.369l-0.494 0.869c-0.269 0.481-0.113 1.088 0.362 1.369l2.45 1.438-2.131 0.569c-0.525 0.144-0.838 0.694-0.694 1.225l0.256 0.969c0.137 0.531 0.681 0.85 1.206 0.706l4.981-1.356 4.494 2.638-4.494 2.637-4.981-1.356c-0.525-0.144-1.063 0.175-1.206 0.706l-0.256 0.969c-0.138 0.531 0.169 1.081 0.694 1.225l2.131 0.581-2.45 1.438c-0.469 0.275-0.631 0.887-0.362 1.369l0.494 0.869c0.269 0.481 0.875 0.644 1.344 0.369l2.45-1.438-0.569 2.169c-0.138 0.531 0.169 1.081 0.694 1.225l0.95 0.256c0.525 0.144 1.063-0.175 1.206-0.706l1.331-5.063 4.494-2.637v5.281l-3.644 3.706c-0.381 0.387-0.381 1.025 0 1.413l0.694 0.706c0.381 0.387 1.006 0.387 1.387 0l1.556-1.587v2.869c0 0.55 0.438 1 0.981 1h0.981c0.544 0 0.981-0.45 0.981-1v-2.881l1.556 1.587c0.381 0.387 1.006 0.387 1.387 0l0.694-0.706c0.381-0.387 0.381-1.025 0-1.413l-3.644-3.706v-5.281l4.494 2.637 1.331 5.063c0.137 0.531 0.681 0.85 1.206 0.706l0.95-0.256c0.525-0.144 0.837-0.694 0.694-1.225l-0.569-2.169 2.45 1.438c0.469 0.275 1.069 0.113 1.344-0.369l0.494-0.869c0.288-0.469 0.131-1.081-0.344-1.356z"></path>
        </symbol>
        <symbol id="mb-icon-twitter" viewBox="0 0 32 32">
            <title>twitter</title>
            <path d="M28.711 9.482c0.020 0.284 0.020 0.569 0.020 0.853 0 8.67-6.599 18.66-18.66 18.66-3.716 0-7.168-1.076-10.071-2.944 0.528 0.061 1.036 0.081 1.584 0.081 3.066 0 5.888-1.035 8.142-2.802-2.883-0.061-5.3-1.949-6.132-4.548 0.406 0.061 0.812 0.102 1.239 0.102 0.589 0 1.178-0.081 1.726-0.223-3.005-0.609-5.259-3.249-5.259-6.437v-0.081c0.873 0.487 1.888 0.792 2.964 0.832-1.766-1.178-2.924-3.188-2.924-5.462 0-1.218 0.325-2.335 0.893-3.31 3.228 3.98 8.081 6.579 13.523 6.863-0.101-0.487-0.162-0.995-0.162-1.502 0-3.614 2.924-6.558 6.558-6.558 1.888 0 3.594 0.792 4.792 2.071 1.482-0.284 2.904-0.832 4.162-1.584-0.487 1.523-1.523 2.802-2.883 3.614 1.32-0.142 2.599-0.508 3.777-1.015-0.893 1.299-2.010 2.457-3.289 3.391z"></path>
        </symbol>
        <symbol id="mb-icon-user" viewBox="0 0 28 32">
            <title>user</title>
            <path d="M19.6 19c-1.794 0-2.656 1-5.6 1s-3.8-1-5.6-1c-4.638 0-8.4 3.762-8.4 8.4v1.6c0 1.656 1.344 3 3 3h22c1.656 0 3-1.344 3-3v-1.6c0-4.637-3.762-8.4-8.4-8.4zM25 29h-22v-1.6c0-2.975 2.425-5.4 5.4-5.4 0.912 0 2.394 1 5.6 1 3.231 0 4.681-1 5.6-1 2.975 0 5.4 2.425 5.4 5.4v1.6zM14 18c4.969 0 9-4.031 9-9s-4.031-9-9-9-9 4.031-9 9 4.031 9 9 9zM14 3c3.306 0 6 2.694 6 6s-2.694 6-6 6-6-2.694-6-6 2.694-6 6-6z"></path>
        </symbol>
        <symbol id="mb-icon-xing" viewBox="0 0 24 32">
            <title>xing</title>
            <path d="M10.169 13.125c-0.113 0.206-1.575 2.775-4.381 7.719-0.306 0.519-0.675 0.781-1.106 0.781h-4.069c-0.481 0-0.756-0.469-0.531-0.9l4.313-7.581c0.013 0 0.013-0.006 0-0.019l-2.744-4.725c-0.269-0.487 0.019-0.881 0.531-0.881h4.069c0.456 0 0.831 0.256 1.125 0.762l2.794 4.844zM23.913 2.881l-9 15.813v0.019l5.725 10.412c0.244 0.444 0.012 0.881-0.531 0.881h-4.075c-0.475 0-0.85-0.25-1.125-0.762l-5.775-10.531c0.206-0.363 3.219-5.675 9.050-15.95 0.288-0.506 0.65-0.763 1.094-0.763h4.106c0.5 0 0.769 0.419 0.531 0.881z"></path>
        </symbol>
        <symbol id="mb-icon-youtube" viewBox="0 0 32 32">
            <title>youtube</title>
            <path d="M13.333 20l6.92-4-6.92-4v8zM28.747 9.56c0.173 0.627 0.293 1.467 0.373 2.533 0.093 1.067 0.133 1.987 0.133 2.787l0.080 1.12c0 2.92-0.213 5.067-0.587 6.44-0.333 1.2-1.107 1.973-2.307 2.307-0.627 0.173-1.773 0.293-3.533 0.373-1.733 0.093-3.32 0.133-4.787 0.133l-2.12 0.080c-5.587 0-9.067-0.213-10.44-0.587-1.2-0.333-1.973-1.107-2.307-2.307-0.173-0.627-0.293-1.467-0.373-2.533-0.093-1.067-0.133-1.987-0.133-2.787l-0.080-1.12c0-2.92 0.213-5.067 0.587-6.44 0.333-1.2 1.107-1.973 2.307-2.307 0.627-0.173 1.773-0.293 3.533-0.373 1.733-0.093 3.32-0.133 4.787-0.133l2.12-0.080c5.587 0 9.067 0.213 10.44 0.587 1.2 0.333 1.973 1.107 2.307 2.307z"></path>
        </symbol>
    </defs>
</svg>
