<svg xmlns="http://www.w3.org/2000/svg" class="svg-inline--fa" viewBox="0 0 48 48">
  <g fill="currentColor">
    <path id="fill6" d="M26 26.4a3.5 3.5 0 0 1 .3 1.3 3.3 3.3 0 0 1-1 2.3 2.9 2.9 0 0 1-1 .7 3 3 0 0 1-1 .2 3 3 0 0 1-1.2-.2 3 3 0 0 1-1-.7 3.3 3.3 0 0 1-.7-1 3.4 3.4 0 0 1-.2-1.3 3.5 3.5 0 0 1 .3-1.3 3.1 3.1 0 0 1 .6-1 3.2 3.2 0 0 1 1-.7 3 3 0 0 1 1.1-.2 3 3 0 0 1 1.2.2 3 3 0 0 1 1 .7 3.2 3.2 0 0 1 .6 1z"/>
    <path id="fill0" d="M39.6 21.3A12.7 12.7 0 0 1 40 24a12.7 12.7 0 0 1-.3 2.7A7.6 7.6 0 0 1 39 29a4.1 4.1 0 0 1-1.3 1.4 2.7 2.7 0 0 1-1.6.5 2.8 2.8 0 0 1-1.6-.5 4 4 0 0 1-1.2-1.4 8 8 0 0 1-.8-2.2 14.2 14.2 0 0 1 0-5.4 8.2 8.2 0 0 1 .8-2.1 4 4 0 0 1 1.2-1.4 2.8 2.8 0 0 1 1.6-.5 2.7 2.7 0 0 1 1.6.5 4.2 4.2 0 0 1 1.3 1.4 7.9 7.9 0 0 1 .7 2.1z"/>
    <path id="circle" d="M24 0a24 24 0 1 0 24 24A24 24 0 0 0 24 0zm17.3 31.4a7.2 7.2 0 0 1-2.3 2.2 5.8 5.8 0 0 1-5.9 0 7 7 0 0 1-2.2-2.2 10.2 10.2 0 0 1-1.3-2.7 6.5 6.5 0 0 1-.4 1.7 6.7 6.7 0 0 1-1.4 2.1 6.4 6.4 0 0 1-2 1.4 5.8 5.8 0 0 1-2.4.5 6 6 0 0 1-2.7-.5 6.4 6.4 0 0 1-2-1.5 6.6 6.6 0 0 1-1.3-2l-.1.4a5.6 5.6 0 0 1-1.3 2 5.8 5.8 0 0 1-2 1.2 7.4 7.4 0 0 1-4.7.1 6 6 0 0 1-1.8-1A6.7 6.7 0 0 1 6 31.5a7.3 7.3 0 0 1-1-2.3v-1.5h3.2a4.1 4.1 0 0 0 .2 1 3.9 3.9 0 0 0 1 1.3 2.2 2.2 0 0 0 .5.3 3.2 3.2 0 0 0 2.6.2 2.8 2.8 0 0 0 .9-.5 2.9 2.9 0 0 0 .5-.8 2.6 2.6 0 0 0 .3-1.1 2.5 2.5 0 0 0-.9-2 3.5 3.5 0 0 0-2.3-.7H9.4v-3.5h1.4a3.5 3.5 0 0 0 1-.1 2.6 2.6 0 0 0 1-.5 2 2 0 0 0 .5-.8 2.6 2.6 0 0 0 .3-1 2.2 2.2 0 0 0-.7-1.7 2.3 2.3 0 0 0-1.7-.6 2.3 2.3 0 0 0-1.8.7 6.6 6.6 0 0 0-.8 1.4H5.2l.2-1.3a7 7 0 0 1 .8-1.5A5.8 5.8 0 0 1 7.3 15a5.8 5.8 0 0 1 4-1.4 6.5 6.5 0 0 1 2.3.4 5.6 5.6 0 0 1 1.8 1A5 5 0 0 1 17 19a5.7 5.7 0 0 1-.1 1.5 5.6 5.6 0 0 1-.6 1.3 4.1 4.1 0 0 1-.7 1 3.8 3.8 0 0 1-.8.5v.3a4.9 4.9 0 0 1 2 1.7l.3.4a8.4 8.4 0 0 1 .5-1.8 25.7 25.7 0 0 1 1.9-3.4l4.5-7h3.7l-5 7.9.2.2a3 3 0 0 1 1.4-.3 4.4 4.4 0 0 1 2 .4 5.8 5.8 0 0 1 1.7 1.4 6.2 6.2 0 0 1 1 1.4V24a16.2 16.2 0 0 1 .5-4 10.6 10.6 0 0 1 1.4-3.3 7 7 0 0 1 2.2-2.2 5.8 5.8 0 0 1 6 0 7.2 7.2 0 0 1 2.2 2.2 10.6 10.6 0 0 1 1.4 3.2 17 17 0 0 1 0 8.2 10.7 10.7 0 0 1-1.4 3.3z"/>
  </g>
</svg>
