<svg xmlns="http://www.w3.org/2000/svg" class="svg-inline--fa" viewBox="0 0 48 48">
  <g fill="currentColor">
    <path id="fill6" d="M26.02 26.38a3.526 3.526 0 0 1 .25 1.32 3.273 3.273 0 0 1-.92 2.33 2.884 2.884 0 0 1-.97.66 3.003 3.003 0 0 1-1.13.23 2.94 2.94 0 0 1-1.14-.23 2.986 2.986 0 0 1-.97-.66 3.28 3.28 0 0 1-.69-1.02 3.434 3.434 0 0 1-.24-1.31 3.522 3.522 0 0 1 .24-1.32 3.107 3.107 0 0 1 .69-1.03 3.184 3.184 0 0 1 .97-.67 2.938 2.938 0 0 1 1.14-.23 3.002 3.002 0 0 1 1.13.23 3.067 3.067 0 0 1 .97.67 3.22 3.22 0 0 1 .67 1.03z"/>
    <path id="fill0" d="M39.62 21.34a12.658 12.658 0 0 1 .26 2.71 12.66 12.66 0 0 1-.26 2.69 7.597 7.597 0 0 1-.76 2.16 4.114 4.114 0 0 1-1.23 1.42 2.728 2.728 0 0 1-1.61.51 2.775 2.775 0 0 1-1.64-.51 3.97 3.97 0 0 1-1.21-1.42 7.921 7.921 0 0 1-.76-2.16 14.152 14.152 0 0 1 0-5.4 8.222 8.222 0 0 1 .76-2.15 4.058 4.058 0 0 1 1.21-1.42 2.766 2.766 0 0 1 1.64-.5 2.719 2.719 0 0 1 1.61.5 4.207 4.207 0 0 1 1.23 1.42 7.871 7.871 0 0 1 .76 2.15z"/>
    <path id="circle" d="M24 0a24 24 0 1 0 24 24A24.006 24.006 0 0 0 24 0zm17.28 31.44a7.181 7.181 0 0 1-2.24 2.19 5.84 5.84 0 0 1-5.9 0 7.078 7.078 0 0 1-2.24-2.19 10.185 10.185 0 0 1-1.26-2.7 6.479 6.479 0 0 1-.44 1.65 6.708 6.708 0 0 1-1.41 2.13 6.426 6.426 0 0 1-2.02 1.4 5.812 5.812 0 0 1-2.4.51 6.024 6.024 0 0 1-2.65-.57 6.433 6.433 0 0 1-2.03-1.49 6.636 6.636 0 0 1-1.26-2.06c-.05.18-.11.34-.17.51a5.592 5.592 0 0 1-1.28 1.9A5.784 5.784 0 0 1 14 33.98a7.356 7.356 0 0 1-4.68.13 5.961 5.961 0 0 1-1.85-.97 6.711 6.711 0 0 1-1.48-1.64A7.303 7.303 0 0 1 5 29.21c-.03-.27-.05-.53-.06-.8v-.68h3.22a4.1 4.1 0 0 0 .23.91 3.865 3.865 0 0 0 1 1.34 2.218 2.218 0 0 0 .5.36 3.178 3.178 0 0 0 2.59.19 2.773 2.773 0 0 0 .87-.54 2.862 2.862 0 0 0 .59-.82 2.558 2.558 0 0 0 .22-1.09 2.474 2.474 0 0 0-.85-2 3.533 3.533 0 0 0-2.35-.73H9.41V21.9h1.42a3.491 3.491 0 0 0 1.02-.14 2.619 2.619 0 0 0 .88-.45 2.043 2.043 0 0 0 .6-.78 2.603 2.603 0 0 0 .23-1.12 2.17 2.17 0 0 0-.63-1.61 2.346 2.346 0 0 0-1.71-.62 2.276 2.276 0 0 0-1.77.68 6.61 6.61 0 0 0-.83 1.42H5.17s.19-.88.28-1.32a6.914 6.914 0 0 1 .71-1.49 5.783 5.783 0 0 1 1.19-1.39 5.762 5.762 0 0 1 3.92-1.41 6.55 6.55 0 0 1 2.35.41 5.607 5.607 0 0 1 1.83 1.11 5.092 5.092 0 0 1 1.6 3.79 5.734 5.734 0 0 1-.2 1.56 5.639 5.639 0 0 1-.51 1.25 4.098 4.098 0 0 1-.72.94 3.81 3.81 0 0 1-.83.62v.23a4.876 4.876 0 0 1 2.09 1.77c.07.11.14.23.21.35a8.435 8.435 0 0 1 .55-1.81 25.714 25.714 0 0 1 1.82-3.39L24 13.57h3.67l-4.88 7.81.14.18a3.058 3.058 0 0 1 1.39-.29 4.436 4.436 0 0 1 1.99.47 5.775 5.775 0 0 1 1.73 1.32 6.15 6.15 0 0 1 .95 1.4c-.01-.14-.01-.27-.01-.41a16.169 16.169 0 0 1 .49-4.1 10.635 10.635 0 0 1 1.43-3.29 7.078 7.078 0 0 1 2.24-2.19 5.84 5.84 0 0 1 5.9 0 7.181 7.181 0 0 1 2.24 2.19 10.626 10.626 0 0 1 1.42 3.29 17.06 17.06 0 0 1 0 8.2 10.732 10.732 0 0 1-1.42 3.29z"/>
  </g>
</svg>
