<svg xmlns="http://www.w3.org/2000/svg" class="svg-inline--fa fa-4x " viewBox="0 0 512 512">
  <g fill="currentColor">
    <path id="top-left" d="M106.62 215.43a106.83 106.83 0 0 0 34.73-5.82c.38-.13.76-.22 1.13-.34v-.02l.15-.04a66.38 66.38 0 0 0-18.3-25.48 75.85 75.85 0 0 1-17.7 2.08 76.99 76.99 0 1 1 74.5-57.57 71.05 71.05 0 0 0 24.25 17.2c.34.16.66.35 1.01.5l.15.06a106.62 106.62 0 1 0-99.92 69.43z"/>
    <path id="top-right" d="M305.1 145.09a.04.04 0 0 1 .02 0l.04.15a65.04 65.04 0 0 0 25.3-18.78 75.73 75.73 0 0 1-2.08-17.65 76.98 76.98 0 1 1 57.57 74.51 63.87 63.87 0 0 0-12.55 14.22 70 70 0 0 0-5.52 10.36l-.23.45h.02l-.07.15a105.24 105.24 0 0 0 37.79 6.93 106.76 106.76 0 1 0-100.67-71.62c.13.42.23.86.38 1.28z"/>
    <path id="bottom-left" d="M207.96 370.06h-.01l-.04-.16a66.33 66.33 0 0 0-25.95 17.24 79.75 79.75 0 0 1 1.66 16.05 77 77 0 1 1-77-77 76.05 76.05 0 0 1 21.2 3.02 72.78 72.78 0 0 0 15.84-25.25l.22-.48.05-.16a105.36 105.36 0 0 0-37.31-6.75 106.76 106.76 0 1 0 101.58 74.35l-.24-.87z"/>
    <path id="bottom-right" d="M405.38 296.57a105.84 105.84 0 0 0-39 7.41l-.18.06-.15.06a71.8 71.8 0 0 0 12.74 22.1c1.12 1.23 2.25 2.42 3.43 3.6a74.87 74.87 0 0 1 23.16-3.6 76.9 76.9 0 1 1-75.76 63.13 69.98 69.98 0 0 0-23.88-17.67c-.59-.28-1.13-.61-1.73-.88v.03c-.05-.03-.1-.06-.15-.07a105.18 105.18 0 0 0-5.1 32.45 106.62 106.62 0 1 0 106.62-106.62z"/>
    <path id="body" d="M432.21 376.3c-10.24-10.19-23.8-10.9-36.48-16.4a83.98 83.98 0 0 1-27.37-18.84l-8.47-10.37a88.67 88.67 0 0 1-9.83-18.6c-6.28-15.94-8.77-33.58-9.06-50.4-.35-20.09 2.31-42.06 10.6-60.9a87.64 87.64 0 0 1 6.3-11.83c.27-.4.48-.83.77-1.23a2.4 2.4 0 0 1 .16-.2l8.23-10.6a9.56 9.56 0 0 1 .77-.9 84.24 84.24 0 0 1 19.5-15.28 90.08 90.08 0 0 1 15.45-6.87c6.63-2.18 13.62-3.13 19.9-6.57 24.17-13.15 28.97-46.8 9.6-66.28l-.12-.12a41.07 41.07 0 0 0-29.2-11.9c-16.65 0-33.11 9.59-39.5 26.77-2.68 7.16-3.86 14.63-6.88 21.68a84.62 84.62 0 0 1-11.5 19.25 78.35 78.35 0 0 1-7.63 8.29l-1.19 1.13-10.6 8.23a88 88 0 0 1-12.91 7.05c-1.54.65-3.08 1.3-4.68 1.9a151.6 151.6 0 0 1-52.3 9 171.9 171.9 0 0 1-42.41-5.4 97.1 97.1 0 0 1-28.97-12.73l-10.6-8.24a83.44 83.44 0 0 1-24.34-39.09c-2.61-9.06-4.68-17.23-11.2-24.4a41.82 41.82 0 0 0-18.3-11.78 40.94 40.94 0 0 0-12.5-1.9 42.37 42.37 0 0 0-29.8 12.14l-.05.12c-21.1 21.14-13.15 58.17 14.86 68.71 7.11 2.66 14.63 3.79 21.68 6.87a84.63 84.63 0 0 1 19.25 11.5 76.13 76.13 0 0 1 9.3 8.7l8.41 10.66a75.37 75.37 0 0 1 7.64 14.27 34.08 34.08 0 0 1 1.43 3.44c11.13 30.45 11.55 66.16 2.72 97.2a86.65 86.65 0 0 1-2.9 8.59c-2.67 6.93-10.3 19.43-10.3 19.43l-8.42 10.42a84.66 84.66 0 0 1-37.8 22.92c-9.05 2.6-17.17 4.62-24.33 11.2a41.79 41.79 0 0 0-1.54 60.53l.05.12a41.24 41.24 0 0 0 29.2 11.97c16.65 0 33.05-9.66 39.51-26.84 2.49-6.57 3.56-13.44 6.16-19.96a84.7 84.7 0 0 1 12.26-20.97 78.84 78.84 0 0 1 7.35-8.05l10.37-8.53a87.97 87.97 0 0 1 18.42-9.65c.3-.13.65-.24.95-.36a152.19 152.19 0 0 1 52.3-8.95 171.73 171.73 0 0 1 42.35 5.34 94.7 94.7 0 0 1 14.15 4.8 92.78 92.78 0 0 1 16.47 9.06l10.42 8.47.11-.12-.1.12a84.29 84.29 0 0 1 22.8 37.78c2.6 9 4.74 17.18 11.2 24.35a42.52 42.52 0 0 0 18.3 11.79 41.4 41.4 0 0 0 12.55 1.95 42.4 42.4 0 0 0 29.73-12.2l.13-.12a41.88 41.88 0 0 0-.06-59.17z"/>
  </g>
</svg>
